<svg xmlns="http://www.w3.org/2000/svg" fill="none" viewBox="0 0 281 300"><path fill="#1F3F7A" fill-rule="evenodd" d="M140.629 42.34c-18.703 8.074-73.845 31.877-94.774 40.92 21.09 12.272 75.523 43.89 94.548 54.903 0 21.607.065 108.064.065 108.064s66.267-48.219 82.455-59.974l11.932-102.832s-75.684-33.007-94.226-41.08zM281 57.294c-4.611 32.619-16.317 114.942-21.283 149.79C233.79 227.301 168.232 278.362 140.5 300c-27.732-21.638-93.29-72.699-119.217-92.916C16.349 172.236 4.611 89.913 0 57.294 32.73 43.923 109.994 12.466 140.629 0 171.199 12.434 248.366 43.955 281 57.294z" clip-rule="evenodd"/></svg>