<?xml version="1.0" encoding="utf-8"?>
<!-- Svg Vector Icons : http://www.onlinewebfonts.com/icon -->
<!DOCTYPE svg PUBLIC "-//W3C//DTD SVG 1.1//EN" "http://www.w3.org/Graphics/SVG/1.1/DTD/svg11.dtd">
<svg version="1.1" xmlns="http://www.w3.org/2000/svg" xmlns:xlink="http://www.w3.org/1999/xlink" x="0px" y="0px" viewBox="0 0 1000 1000" enable-background="new 0 0 1000 1000" xml:space="preserve">
<metadata> Svg Vector Icons : http://www.onlinewebfonts.com/icon </metadata>
<g><path fill="#173D7A" d="M500,10C229.8,10,10,229.8,10,500c0,270.1,219.8,490,490,490c270.2,0,490-219.8,490-490C990,229.8,770.2,10,500,10z M812.6,813c-0.1-0.7-0.2-1.4-0.2-2.1c0,0.2,0,1.1,0,2.3c-0.5,0.5-0.9,0.9-1.4,1.4C790.1,647.1,658.8,525.3,500,525.3C331.9,525.3,194.7,684,186.4,812c-79.7-80.1-129-190.4-129-312C57.4,255.9,255.9,57.4,500,57.4C744,57.4,942.6,255.9,942.6,500C942.6,622.1,892.9,732.8,812.6,813z"/><path fill="#173D7A" d="M354.2,342c0,80.5,65.3,145.8,145.8,145.8c80.5,0,145.8-65.3,145.8-145.8c0-80.5-65.3-145.8-145.8-145.8C419.5,196.2,354.2,261.5,354.2,342L354.2,342z"/><path fill="#173D7A" d="M812.4,810.8C812.4,810.8,812.4,810.8,812.4,810.8C812.4,810.8,812.4,810.8,812.4,810.8z"/></g>
</svg>