<svg xmlns="http://www.w3.org/2000/svg" fill="none" viewBox="0 0 760 301"><path fill="#1F3F7A" fill-rule="evenodd" d="M140.677 42.34c-18.709 8.074-73.87 31.877-94.806 40.92 21.097 12.272 75.548 43.89 94.581 54.903 0 21.607.064 108.064.064 108.064s66.29-48.219 82.484-59.974l11.935-102.832s-75.709-33.007-94.258-41.08zm140.42 14.954c-4.613 32.619-16.323 114.942-21.291 149.79-25.935 20.217-91.516 71.277-119.258 92.916-27.742-21.639-93.322-72.699-119.258-92.916C16.355 172.236 4.613 89.913 0 57.294 32.742 43.923 110.032 12.466 140.677 0c30.581 12.434 107.775 43.955 140.42 57.294zm137.451 86.392l-14.225-41.824c-.291-.872-.807-.872-1.097 0l-14.71 41.856c-.322.872.194 1.583 1.129 1.583h27.742c.936 0 1.452-.711 1.161-1.615zm-34.354-84.713h39.709c.936 0 1.968.71 2.291 1.583l53.29 144.202c.322.872-.161 1.583-1.097 1.583h-40.064c-.936 0-1.904-.743-2.162-1.615l-6.935-23.964c-.258-.904-1.226-1.615-2.162-1.615h-47.258c-.935 0-1.903.743-2.161 1.615l-6.935 23.964c-.258.904-1.226 1.615-2.162 1.615h-38.161c-.935 0-1.419-.711-1.129-1.583l52.71-144.17c.322-.872 1.355-1.583 2.29-1.583l-.064-.032zm167.967 114.458c17.839 0 25.291-5.749 25.291-41.275 0-35.526-8.162-40.887-25.484-40.887-17.323 0-25.516 4.037-25.516 40.887s7.58 41.275 25.709 41.275zM551.968 57.1c44.903 0 64.967 23.156 64.967 75.089 0 51.932-19.419 75.444-64.967 75.444-45.549 0-65.129-23.964-65.129-75.444 0-51.48 20.096-75.09 65.129-75.09zm88.806 147.497v-30.875c0-.905.742-1.648 1.645-1.648h112.936c.903 0 1.645.743 1.645 1.648v30.875c0 .904-.742 1.647-1.645 1.647H642.419a1.653 1.653 0 0 1-1.645-1.647zm1.645-145.592h112.936c.903 0 1.645.743 1.645 1.647v30.876c0 .904-.742 1.647-1.645 1.647H642.419a1.653 1.653 0 0 1-1.645-1.647V60.652c0-.904.742-1.647 1.645-1.647zm-1.645 89.041v-30.875c0-.904.742-1.647 1.645-1.647h112.936c.903 0 1.645.743 1.645 1.647v30.875c0 .904-.742 1.647-1.645 1.647H642.419a1.653 1.653 0 0 1-1.645-1.647z" clip-rule="evenodd"/></svg>