<?xml version="1.0" encoding="utf-8"?>
<!-- Svg Vector Icons : http://www.onlinewebfonts.com/icon -->
<!DOCTYPE svg PUBLIC "-//W3C//DTD SVG 1.1//EN" "http://www.w3.org/Graphics/SVG/1.1/DTD/svg11.dtd">
<svg version="1.1" xmlns="http://www.w3.org/2000/svg" xmlns:xlink="http://www.w3.org/1999/xlink" x="0px" y="0px" viewBox="0 0 1000 1000" enable-background="new 0 0 1000 1000" xml:space="preserve">
<metadata> Svg Vector Icons : http://www.onlinewebfonts.com/icon </metadata>
<g><path fill="#173D7A" d="M155.2,137c0,27.2-12.1,48-36.3,62.4v718c0,4.9-1.8,9.2-5.4,12.8s-7.8,5.4-12.8,5.4H64.4c-4.9,0-9.2-1.8-12.8-5.4c-3.6-3.6-5.4-7.8-5.4-12.8v-718C22.1,185.1,10,164.3,10,137c0-20,7.1-37.1,21.3-51.3c14.2-14.2,31.3-21.3,51.3-21.3s37.1,7.1,51.3,21.3C148.1,99.9,155.2,117,155.2,137L155.2,137z M990,173.3v432.7c0,9.5-2.4,16.7-7.1,21.9c-4.7,5.1-12.2,10.3-22.4,15.6c-81.3,43.9-151,65.8-209.3,65.8c-23.1,0-46.4-4.2-70.1-12.5s-44.1-17.4-61.5-27.2c-17.4-9.8-39.2-18.9-65.5-27.2c-26.3-8.3-53.2-12.5-80.8-12.5c-72.6,0-160.3,27.6-263.1,82.8c-6.4,3.4-12.7,5.1-18.7,5.1c-9.8,0-18.3-3.6-25.5-10.8c-7.2-7.2-10.8-15.7-10.8-25.5V260.7c0-12.1,5.9-22.5,17.6-31.2c7.9-5.3,22.9-13.4,44.8-24.4c89.2-45.4,168.8-68.1,238.8-68.1c40.5,0,78.3,5.5,113.4,16.4c35.2,11,76.6,27.6,124.2,49.9c14.4,7.2,31,10.8,49.9,10.8c20.4,0,42.6-4,66.6-11.9c24-7.9,44.8-16.8,62.4-26.6c17.6-9.8,34.2-18.7,49.9-26.6c15.7-7.9,26-11.9,30.9-11.9c9.8,0,18.3,3.6,25.5,10.8C986.4,155.1,990,163.6,990,173.3L990,173.3z"/></g>
</svg>