<?xml version="1.0" encoding="utf-8"?>
<!-- Svg Vector Icons : http://www.onlinewebfonts.com/icon -->
<!DOCTYPE svg PUBLIC "-//W3C//DTD SVG 1.1//EN" "http://www.w3.org/Graphics/SVG/1.1/DTD/svg11.dtd">
<svg version="1.1" xmlns="http://www.w3.org/2000/svg" xmlns:xlink="http://www.w3.org/1999/xlink" x="0px" y="0px" viewBox="0 0 1000 1000" enable-background="new 0 0 1000 1000" xml:space="preserve">
<metadata> Svg Vector Icons : http://www.onlinewebfonts.com/icon </metadata>
<g><path fill="#173D7A" d="M115.8,923.9C57.5,923.9,10,870.5,10,804.8V201.7c0-69.3,47.5-125.6,105.8-125.6h497.8c58.4,0,105.8,56.4,105.8,125.6v64.5c0,17.2-14,31.3-31.2,31.3s-31.2-14-31.2-31.3v-64.5c0-29.4-19.5-53.4-43.5-53.4H115.8c-24,0-43.5,23.9-43.5,53.4v596.6c0,29.4,19.5,53.4,43.5,53.4h497.8c24,0,43.5-23.9,43.5-53.4v-64.5c0-17.2,14-31.2,31.2-31.2c17.2,0,31.2,14,31.2,31.2v64.5c0,69.3-47.5,125.6-105.8,125.6L115.8,923.9L115.8,923.9z M787.3,725.5c-8.4,0-16.3-3.5-22.2-9.8c-11.9-12.8-11.9-33.6,0-46.4l120-128.7c0.1-0.1,0.2-0.2,0.1-0.4c-0.1-0.2-0.2-0.2-0.4-0.2h-522c-17.2,0-31.2-14.8-31.2-33c0-18.2,14-33,31.2-33h521.9c0.1,0,0.3,0,0.4-0.2c0.1-0.2,0-0.3-0.1-0.4l-120-128.7c-11.9-12.8-11.9-33.6,0-46.4c5.9-6.3,13.8-9.8,22.2-9.8s16.3,3.5,22.2,9.8l171.7,184.2c6,6.5,9.1,15.2,8.7,24.5c0.4,9.3-2.7,18-8.7,24.5L809.5,715.7C803.6,722,795.7,725.5,787.3,725.5L787.3,725.5z"/></g>
</svg>